
<svg width="12" height="12" viewBox="0 0 12 12" fill="none" xmlns="http://www.w3.org/2000/svg">
<path fill-rule="evenodd" clip-rule="evenodd" d="M4.6665 10.6667C5.03317 10.6667 5.33317 10.9667 5.33317 11.3333L5.32866 11.4108C5.28997 11.7413 5.00698 12 4.6665 12H1.33317C0.966504 12 0.666504 11.7 0.666504 11.3333L0.671011 11.2559C0.709701 10.9253 0.992694 10.6667 1.33317 10.6667H4.6665ZM9.91984 8.47333C10.1798 8.21333 10.5998 8.21333 10.8598 8.47333L10.9152 8.53603C11.1183 8.797 11.0998 9.17333 10.8598 9.41333L8.7465 11.5267C8.4865 11.7867 8.0665 11.7867 7.8065 11.5267L6.85984 10.58C6.59984 10.32 6.59984 9.9 6.85984 9.64L6.92253 9.58462C7.18351 9.38154 7.55984 9.4 7.79984 9.64L8.27317 10.1133L9.91984 8.47333ZM4.6665 8C5.03317 8 5.33317 8.3 5.33317 8.66667L5.32866 8.74413C5.28997 9.07466 5.00698 9.33333 4.6665 9.33333H1.33317C0.966504 9.33333 0.666504 9.03333 0.666504 8.66667L0.671011 8.5892C0.709701 8.25867 0.992694 8 1.33317 8H4.6665ZM10.6665 5.33333C11.0332 5.33333 11.3332 5.63333 11.3332 6L11.3287 6.07747C11.29 6.40799 11.007 6.66667 10.6665 6.66667H1.33317C0.966504 6.66667 0.666504 6.36667 0.666504 6L0.671011 5.92253C0.709701 5.59201 0.992694 5.33333 1.33317 5.33333H10.6665ZM10.6665 2.66667C11.007 2.66667 11.29 2.92534 11.3287 3.25587L11.3332 3.33333C11.3332 3.7 11.0332 4 10.6665 4H1.33317C0.992694 4 0.709701 3.74133 0.671011 3.4108L0.666504 3.33333C0.666504 2.96667 0.966504 2.66667 1.33317 2.66667H10.6665ZM10.6665 0C11.0332 0 11.3332 0.3 11.3332 0.666667L11.3287 0.744133C11.29 1.07466 11.007 1.33333 10.6665 1.33333H1.33317C0.966504 1.33333 0.666504 1.03333 0.666504 0.666667L0.671011 0.589201C0.709701 0.258673 0.992694 0 1.33317 0H10.6665Z" fill="black" fill-opacity="0.6"/>
</svg>
