<svg xmlns="http://www.w3.org/2000/svg" width="54" height="37" viewBox="0 0 54 37" fill="none">
  <path d="M5.95722 28.4999L1.11064 32.3974L10.415 31.7146C12.3346 32.7617 14.4808 33.2332 14.4808 33.2332C14.4808 33.2332 16.1709 33.5118 16.8842 33.5577L31.672 34.5589C40.0334 35.1559 47.9263 27.7284 49.3898 17.9403C50.0664 13.5713 49.1785 9.65546 47.0445 6.54176L51.9677 3.50155L44.5615 3.73117C43.0093 2.31669 40.6824 1.31553 40.6824 1.31553C38.7903 0.510319 36.6625 0.063319 34.3632 0.0510724L16.9516 -0.000975603C6.95226 -0.00403725 -0.658994 7.31942 0.0451846 16.3237C0.434014 20.9529 2.75474 25.3556 5.95722 28.4968V28.4999Z" fill="#1B4CA1"/>
  <path d="M11.5233 33.8357L2.21894 34.5184C2.05055 34.5307 1.90359 34.4052 1.89135 34.2368C1.88522 34.1327 1.93115 34.0378 2.00463 33.9765L6.85121 30.079L6.82978 30.5352C4.88564 28.6431 3.26909 26.3928 2.18833 23.8853C1.11369 21.387 0.489113 18.6438 0.68812 15.8791C0.87488 13.1267 1.89441 10.4386 3.53239 8.22501C5.16731 5.9992 7.40844 4.25712 9.89755 3.109C12.3897 1.94864 15.133 1.39448 17.864 1.37305C20.546 1.37305 23.2157 1.40366 25.8916 1.42203L33.9131 1.48939C34.5867 1.50164 35.2419 1.49551 35.9277 1.52001C36.6104 1.54756 37.2901 1.61492 37.9637 1.71901C39.3108 1.93027 40.6334 2.30685 41.8856 2.84876C42.0418 2.91612 42.1122 3.09675 42.0448 3.24984C41.9775 3.40292 41.7999 3.47334 41.6468 3.4121C40.4344 2.91306 39.1608 2.57321 37.8626 2.39258C37.2136 2.30379 36.5584 2.25174 35.9062 2.23643C35.2572 2.22418 34.5744 2.23949 33.91 2.23949L25.8885 2.26092L17.8701 2.27011C15.2585 2.30073 12.6439 2.83651 10.2864 3.94483C7.92585 5.0409 5.82862 6.70031 4.27943 8.77917C2.73024 10.855 1.76582 13.3625 1.57906 15.9495C1.36781 18.5336 1.91278 21.1666 2.917 23.5792C3.91816 26.0009 5.41224 28.2237 7.26148 30.1005L7.2676 30.1066C7.387 30.2291 7.38394 30.422 7.26148 30.5383L7.24004 30.5567L2.39346 34.4541L2.17914 33.9092L11.4835 33.2264C11.6519 33.2142 11.7988 33.3397 11.8111 33.5081C11.8233 33.6765 11.6978 33.8234 11.5294 33.8357H11.5233Z" fill="#F3962F"/>
  <path d="M39.7364 4.34312L43.0215 4.1288C43.2297 4.11655 43.3399 3.9053 43.2389 3.72466L41.5886 0.874269C41.4723 0.6722 41.1753 0.663016 41.0712 0.855899L40.2538 2.38672L39.4363 3.91755C39.3322 4.11349 39.5067 4.35536 39.7394 4.34005L39.7364 4.34312Z" fill="#F3962F"/>
  <path d="M45.6361 5.23666L53.0422 5.00704C53.2106 5.00091 53.3515 5.13563 53.3576 5.30402C53.3606 5.4173 53.3025 5.51833 53.2137 5.57344L48.2906 8.61366L48.3824 8.1789C49.0621 9.15251 49.6316 10.2057 50.0663 11.314C50.5011 12.4223 50.795 13.5858 50.9542 14.7676C51.2879 17.1312 51.0644 19.5407 50.5133 21.84C49.9561 24.1454 49.0254 26.362 47.7548 28.3705C46.4781 30.3728 44.8584 32.1669 42.951 33.5967C41.0467 35.0234 38.8454 36.0981 36.4879 36.5634C35.3122 36.8022 34.106 36.8849 32.9088 36.8114L29.4278 36.5634L22.4748 36.0491L18.9998 35.7827L18.1303 35.7154C17.8425 35.697 17.5302 35.6633 17.2455 35.6235C16.6638 35.5439 16.0882 35.4521 15.5126 35.3541C15.3472 35.3265 15.234 35.1673 15.2615 35.002C15.2891 34.8367 15.4452 34.7264 15.6075 34.7509C16.1769 34.8367 16.7525 34.9193 17.322 34.9867C17.6129 35.0204 17.8792 35.0449 18.1701 35.0602L19.0396 35.1122L22.5207 35.3173L29.4798 35.746L32.9548 35.9572C34.0784 36.0154 35.2051 35.9205 36.3073 35.7C38.5178 35.2561 40.5966 34.2366 42.4 32.8772C44.2094 31.5117 45.7463 29.7941 46.9649 27.8775C48.1895 25.964 49.0927 23.8423 49.6407 21.6348C50.1704 19.4243 50.446 17.1312 50.1582 14.8778C50.0173 13.7542 49.7724 12.6428 49.3897 11.5743C49.0039 10.5088 48.4926 9.48623 47.8681 8.53712L47.865 8.53099C47.7731 8.39016 47.8129 8.20033 47.9538 8.10848H47.9599L52.883 5.06521L53.0545 5.63161L45.6484 5.86124C45.48 5.86736 45.3391 5.73265 45.333 5.56426C45.3269 5.39587 45.4616 5.25503 45.63 5.24891L45.6361 5.23666Z" fill="#F3962F"/>
  <path d="M17.4139 33.0241L14.441 34.4386C14.2543 34.5274 14.2267 34.7662 14.389 34.8948L16.9761 36.9338C17.1598 37.0777 17.4384 36.9767 17.4659 36.7593L17.6588 35.0325L17.8517 33.3058C17.8762 33.0853 17.6251 32.9261 17.4139 33.0272V33.0241Z" fill="#F3962F"/>
  <path d="M27.1744 11.6821C27.1039 11.7586 23.4575 12.025 23.3626 11.8413C23.2646 11.6576 22.9524 8.61434 23.1452 8.24388C23.3381 7.87342 26.7886 7.68972 27.006 7.84586C27.2233 8.00507 27.2968 11.5474 27.1744 11.679V11.6821Z" fill="white"/>
  <path d="M22.539 13.6567C22.5972 13.3659 27.104 13.2556 27.2172 13.3322C27.3336 13.4087 27.5265 25.5818 27.5265 25.5818C27.5265 25.5818 28.8001 25.8206 28.846 25.94C28.8889 26.0625 29.339 28.6343 29.1644 28.6343C28.9899 28.6343 22.2696 28.9251 22.0951 28.6343C21.9206 28.3434 22.1165 25.9309 22.3217 25.787C22.5237 25.6431 23.5004 25.5849 23.5004 25.5849L23.6443 15.6192C23.6443 15.6192 22.5452 15.5947 22.4594 15.4202C22.3737 15.2457 22.539 13.6598 22.539 13.6598V13.6567Z" fill="white"/>
  <path d="M16.6362 12.5454L12.7847 10.8125" stroke="#F3962F" stroke-linecap="round" stroke-linejoin="round"/>
  <path d="M18.7457 13.4951L17.6895 13.0205" stroke="#F3962F" stroke-linecap="round" stroke-linejoin="round"/>
  <path d="M13.9144 17.9375H10.4548" stroke="#F3962F" stroke-linecap="round" stroke-linejoin="round"/>
  <path d="M18.513 17.9375H15.0901" stroke="#F3962F" stroke-linecap="round" stroke-linejoin="round"/>
  <path d="M14.2267 24.5137L12.9898 24.9454" stroke="#F3962F" stroke-linecap="round" stroke-linejoin="round"/>
  <path d="M18.9968 22.8457L15.1268 24.199" stroke="#F3962F" stroke-linecap="round" stroke-linejoin="round"/>
  <path d="M35.2173 10.3967L36.4481 9.82422" stroke="#F3962F" stroke-linecap="round" stroke-linejoin="round"/>
  <path d="M30.4749 12.5949L34.4917 10.7334" stroke="#F3962F" stroke-linecap="round" stroke-linejoin="round"/>
  <path d="M39.023 17.1265L40.6243 17.001" stroke="#F3962F" stroke-linecap="round" stroke-linejoin="round"/>
  <path d="M34.1733 17.5089L37.9514 17.2119" stroke="#F3962F" stroke-linecap="round" stroke-linejoin="round"/>
  <path d="M30.5178 17.7936L33.013 17.5977" stroke="#F3962F" stroke-linecap="round" stroke-linejoin="round"/>
  <path d="M34.1703 24.8936L36.8645 26.2162" stroke="#F3962F" stroke-linecap="round" stroke-linejoin="round"/>
  <path d="M30.6341 23.1572L33.3681 24.4982" stroke="#F3962F" stroke-linecap="round" stroke-linejoin="round"/>
  <path d="M29.5319 8.78618L31.9721 5.74902" stroke="#F3962F" stroke-linecap="round" stroke-linejoin="round"/>
  <path d="M20.6868 9.35562L17.7997 6.58789" stroke="#F3962F" stroke-linecap="round" stroke-linejoin="round"/>
  <path d="M31.6292 28.0068L33.6682 30.1929" stroke="#F3962F" stroke-linecap="round" stroke-linejoin="round"/>
  <path d="M19.7652 27.7227L17.1689 29.4709" stroke="#F3962F" stroke-linecap="round" stroke-linejoin="round"/>
</svg>