<svg xmlns="http://www.w3.org/2000/svg" width="30" height="28" viewBox="0 0 30 28" fill="none">
  <path fill-rule="evenodd" clip-rule="evenodd" d="M24.8848 10.4122C24.1736 10.2957 23.3721 10.2216 22.4789 10.2216C22.3771 10.2268 22.2769 10.2329 22.1778 10.2397C22.4774 9.69254 22.7493 9.20192 23.0035 8.65888C25.5152 8.25256 27.0002 8.54771 27.0002 8.54771C27.0002 8.54771 26.3746 9.01952 24.8848 10.4122ZM21.6126 10.2889C21.017 10.3516 20.4744 10.4444 19.9805 10.5599C20.1501 10.1606 20.2889 9.73889 20.4047 9.30527C20.6427 9.20692 20.5272 8.77762 20.7901 8.68468C21.2344 8.55062 22.8587 8.11958 23.2596 8.03662C23.0121 8.55953 22.5879 10.5733 21.6126 10.2889ZM20.9549 6.06249C23.104 4.8322 24.5369 4.62309 24.5369 4.62309C24.5369 4.62309 23.8876 5.42808 22.6203 8.13206C22.2165 8.20704 21.8619 8.30165 21.4204 8.42239C21.1125 8.52349 20.8206 8.62934 20.5425 8.73876C20.7434 7.82534 20.859 6.95037 20.9549 6.06249ZM25.4529 10.5177C27.3172 8.73535 28.0927 8.33768 28.0927 8.33768C28.0927 8.33768 26.2946 7.59693 23.2596 8.03662C23.2736 8.00633 23.2877 7.97587 23.3016 7.94575C24.7581 4.79467 25.5108 3.96338 25.5108 3.96338C25.5108 3.96338 23.6446 3.93176 21.02 5.37924C21.3853 1.95281 21.8232 0.91748 21.8232 0.91748C21.8232 0.91748 19.5095 1.75975 17.0367 5.41826C16.9079 5.62979 16.7876 5.83724 16.6743 6.04119L16.754 6.86965C16.8882 6.60562 16.7659 6.68783 16.9285 6.40766C19.0285 3.12943 20.9999 1.99549 20.9999 1.99549C20.9999 1.99549 20.7715 2.81114 20.4452 5.67189C20.0502 5.91055 19.7085 6.18174 19.2877 6.4917C18.1286 7.43649 17.5669 8.28276 16.9712 9.12795L17.0383 9.18853C17.5661 8.35932 18.0789 7.63862 19.2372 6.6513C19.6537 6.32777 20.6338 5.62313 21.02 5.37924C20.9242 6.23399 20.7534 7.85738 20.5425 8.73876C19.108 9.36818 17.8495 10.2424 17.145 10.9352C17.7524 10.276 19.1417 9.69496 20.5425 9.04382C20.421 9.44915 20.1597 10.1926 19.9805 10.5599C18.9274 10.8646 17.8303 11.3489 17.2247 11.7642L17.2743 12.1379C17.767 11.7679 18.6546 11.1963 19.5684 10.891C19.4721 11.5493 18.982 12.5842 17.3313 12.8726L17.3743 13.319C18.6154 12.9128 19.1657 12.0078 19.7211 10.9627C20.1943 10.8389 21.5913 10.3132 22.1778 10.2397C21.2764 12.0389 18.3139 14.7307 17.3963 13.5477L17.4386 13.9868C19.6344 14.0379 20.8073 12.5694 21.8913 10.7428C21.9534 10.7375 22.0157 10.7323 22.079 10.7276C22.4789 10.2216 24.772 10.4204 25.4529 10.5177C25.3322 10.6346 24.512 11.6598 24.3818 11.7888C22.5856 13.5705 18.982 16.2615 17.469 14.4454L17.5155 14.787C20.4403 15.7514 22.7189 13.2392 24.697 11.2579C24.8018 11.1529 24.903 11.1235 25.0025 11.0257C26.8554 11.3832 27.8144 11.8856 27.8144 11.8856C27.8144 11.8856 26.876 12.1668 24.342 13.6279C22.2659 14.8249 19.8554 16.3199 17.5344 14.9836L17.5858 15.5186C20.0917 16.7866 22.7074 15.1518 24.969 13.8326C27.8853 12.1317 28.9561 11.9052 28.9561 11.9052C28.9561 11.9052 27.7695 11.0006 25.4529 10.5177Z" fill="#264092"/>
  <path fill-rule="evenodd" clip-rule="evenodd" d="M2.98577 8.54779C2.98577 8.54779 4.47075 8.25264 6.98239 8.65896C7.23664 9.20192 7.50856 9.69254 7.80814 10.2398C7.70899 10.233 7.60881 10.2268 7.50697 10.2216C6.61378 10.2216 5.81229 10.2958 5.10114 10.4122C3.61132 9.01961 2.98577 8.54779 2.98577 8.54779ZM6.72632 8.0367C7.12727 8.11967 8.7515 8.55062 9.19588 8.68476C9.45876 8.77771 9.34321 9.20692 9.58121 9.30536C9.697 9.73898 9.83585 10.1606 10.0055 10.5599C9.51154 10.4445 8.96889 10.3517 8.37338 10.289C7.398 10.5733 6.97383 8.55961 6.72632 8.0367ZM9.44346 8.73885C9.16528 8.62942 8.87347 8.52349 8.56549 8.42239C8.12404 8.30173 7.76946 8.20712 7.36558 8.13206C6.09831 5.42817 5.44907 4.62317 5.44907 4.62317C5.44907 4.62317 6.88198 4.8322 9.03103 6.06258C9.12692 6.95037 9.24256 7.82534 9.44346 8.73885ZM1.02979 11.9052C1.02979 11.9052 2.10066 12.1317 5.01689 13.8327C7.27856 15.1518 9.89426 16.7866 12.4 15.5186L12.4515 14.9836C10.1305 16.32 7.72001 14.8249 5.64395 13.6279C3.10988 12.1669 2.17152 11.8857 2.17152 11.8857C2.17152 11.8857 3.13049 11.3832 4.98345 11.0257C5.08291 11.1236 5.18412 11.1529 5.28897 11.258C7.26699 13.2392 9.54562 15.7515 12.4704 14.787L12.5844 14.3746C11.0714 16.1908 7.40038 13.5706 5.60409 11.7889C5.47395 11.6598 4.65375 10.6347 4.53305 10.5178C5.21392 10.4204 7.50697 10.2216 7.90689 10.7276C7.97021 10.7323 8.03243 10.7376 8.09464 10.7429C9.1786 12.5695 10.3516 14.038 12.5474 13.9869L12.5896 13.5477C11.672 14.7308 8.82528 12.0823 7.80814 10.2398C8.39462 10.3132 9.77839 10.8974 10.2516 11.0213C10.807 12.0663 11.3705 12.9129 12.6116 13.3191L12.6546 12.8727C11.004 12.5842 10.5138 11.5494 10.4176 10.891C11.3314 11.1963 12.2189 11.768 12.7116 12.138L12.7612 11.7643C12.1556 11.3489 11.0585 10.8646 10.0055 10.5599C9.82626 10.1927 9.56496 9.44915 9.44346 9.0439C10.8443 9.69504 12.2335 10.276 12.8409 10.9352C12.1364 10.2425 10.878 9.36827 9.44346 8.73885C9.23257 7.85746 9.06178 6.23408 8.96588 5.37932C9.35208 5.62322 10.3322 6.32786 10.7487 6.6513C11.9071 7.6387 12.4198 8.35932 12.9476 9.18861L13.0147 9.12795C12.4191 8.28284 11.8573 7.43649 10.6982 6.49178C10.2775 6.18174 9.93571 5.91063 9.54071 5.67198C9.21434 2.81122 8.98601 1.99558 8.98601 1.99558C8.98601 1.99558 10.9575 3.12943 13.0574 6.40774C13.22 6.68783 13.0977 6.6057 13.232 6.86973L13.3116 6.04127C13.1983 5.83724 13.0781 5.62979 12.9492 5.41826C10.4764 1.75984 8.16272 0.91748 8.16272 0.91748C8.16272 0.91748 8.60068 1.95281 8.96588 5.37932C6.34131 3.93176 4.47511 3.96346 4.47511 3.96346C4.47511 3.96346 5.22779 4.79467 6.68432 7.94583C6.69827 7.97596 6.71229 8.00633 6.72632 8.0367C3.69137 7.59701 1.89326 8.33776 1.89326 8.33776C1.89326 8.33776 2.66876 8.73535 4.53305 10.5178C2.21645 11.0007 1.02979 11.9052 1.02979 11.9052Z" fill="#264092"/>
  <path fill-rule="evenodd" clip-rule="evenodd" d="M13.1313 11.9525C13.1313 13.0641 13.9895 13.9652 15.0482 13.9652C16.1068 13.9652 16.965 13.0641 16.965 11.9525C16.965 10.841 16.1068 9.93994 15.0482 9.93994C13.9895 9.93994 13.1313 10.841 13.1313 11.9525Z" fill="url(#paint0_radial_659_2101)"/>
  <path fill-rule="evenodd" clip-rule="evenodd" d="M17.3581 18.456L15.0215 12.0391L12.6849 18.456L14.3517 20.01L14.3811 17.2664L14.9254 16.7876L15.6463 17.1076L15.661 18.1931L15.558 20.201L16.428 19.2532L17.3581 18.456Z" fill="#264092"/>
  <path fill-rule="evenodd" clip-rule="evenodd" d="M15.0327 21.0368C15.0327 21.0368 14.7827 22.1673 15.8333 22.1189C16.6508 22.0813 18.9082 21.6639 19.8086 21.4989C20.709 21.3341 22.5096 22.0164 21.4055 24.2236C20.8109 25.2582 18.7044 25.383 16.5129 23.7777C14.3214 22.1724 13.1544 21.3026 12.3168 20.906C11.2044 20.3794 8.47976 19.8585 7.93386 22.7432C7.65282 24.784 9.75163 25.1868 9.75163 25.1868C9.75163 25.1868 8.29629 24.6999 8.27362 23.1891C8.25809 22.1516 9.23346 20.5004 11.2044 21.2093C13.1912 21.9238 13.1832 22.1903 16.0202 24.402C17.787 25.6506 20.658 26.6672 22.017 24.5804C22.8325 23.1534 22.3568 21.1915 20.5391 20.9595C19.1461 20.7811 19.248 21.3698 16.1392 21.8514C15.0859 22.0082 15.0386 21.5939 15.0327 21.0368Z" fill="#1B2133"/>
  <mask id="mask0_659_2101" style="mask-type:luminance" maskUnits="userSpaceOnUse" x="9" y="24" width="6" height="4">
    <path fill-rule="evenodd" clip-rule="evenodd" d="M9.70801 24.4282H14.0083V28.0002H9.70801V24.4282Z" fill="white"/>
  </mask>
  <g mask="url(#mask0_659_2101)">
    <path fill-rule="evenodd" clip-rule="evenodd" d="M13.3143 25.4377L11.4826 24.5454C10.8825 24.253 10.1702 24.5267 9.89183 25.1568L9.86568 25.2162L10.6103 25.5652C10.6103 25.5652 11.1778 25.3422 11.4225 25.9364C11.8986 26.1557 12.1253 26.2789 12.1253 26.2789L12.091 26.357L11.3903 26.0227C11.3903 26.0227 10.8341 26.231 10.5762 25.6639C10.05 25.4067 9.88604 25.3169 9.83477 25.2861L9.81955 25.3206C9.54113 25.9507 9.80188 26.6984 10.402 26.9907L12.2337 27.8831C12.8337 28.1754 13.546 27.9017 13.8244 27.2716L13.8968 27.1078C14.1752 26.4777 13.9144 25.73 13.3143 25.4377Z" fill="#1B2133"/>
  </g>
  <path fill-rule="evenodd" clip-rule="evenodd" d="M15.0412 16.6691L15.033 16.6693C14.2127 16.6693 14.2871 17.6764 14.2871 17.6764V19.3362C13.9846 18.7137 12.4443 17.7356 12.4443 17.7356L13.5994 5.72754L13.0384 5.74252L11.8634 18.2556C11.8634 18.2556 14.3842 19.6774 14.8605 21.542V17.9066V17.9067C14.7243 17.8407 14.6348 17.6964 14.6348 17.5285C14.6348 17.2984 14.8125 17.1117 15.0317 17.1117C15.251 17.1117 15.4287 17.2984 15.4287 17.5285C15.4287 17.6973 15.3342 17.8422 15.1968 17.9078V21.542C15.7974 19.4677 18.1366 18.2563 18.1366 18.2563C18.1366 18.2563 17.3085 9.06601 16.9705 5.72754H16.4841L16.6192 7.13216L17.6393 17.7356C17.6393 17.7356 16.0989 18.7137 15.7964 19.3362V17.6764C15.7964 17.6764 15.8643 16.6693 15.0505 16.6693L15.0412 16.6691Z" fill="#EF951E"/>
  <mask id="mask1_659_2101" style="mask-type:luminance" maskUnits="userSpaceOnUse" x="0" y="0" width="14" height="17">
    <path fill-rule="evenodd" clip-rule="evenodd" d="M0 0H13.5988V16.2942H0V0Z" fill="white"/>
  </mask>
  <g mask="url(#mask1_659_2101)">
    <path fill-rule="evenodd" clip-rule="evenodd" d="M2.10816 8.37656C2.10816 8.37656 3.70861 7.82936 6.41569 8.2673C6.68967 8.85262 6.98275 9.45774 7.30563 10.0475C7.1988 10.0401 7.09086 10.0335 6.98109 10.0279C6.01839 10.0279 5.1546 10.1079 4.38806 10.2334C2.78237 8.73238 2.10816 8.37656 2.10816 8.37656ZM4.69041 4.07024C4.69041 4.07024 6.30743 4.14297 8.62363 5.46896C8.72697 6.4259 8.85172 7.44525 9.06824 8.42982C8.76842 8.31182 8.45387 8.19774 8.12195 8.08873C7.64611 7.95867 7.19127 7.85673 6.75593 7.77585C5.39015 4.86151 4.69041 4.07024 4.69041 4.07024ZM9.21661 9.04034C9.34151 9.50766 9.49106 9.96217 9.6739 10.3925C9.14155 10.2681 8.55674 10.168 7.91494 10.1006C7.59491 9.53229 7.30777 8.94615 7.04093 8.38255C7.47302 8.472 7.92913 8.58601 8.40806 8.73055C8.69139 8.83073 8.96014 8.93433 9.21661 9.04034ZM4.97311 13.6992C2.24194 12.1244 1.23058 11.8978 1.23058 11.8978C1.23058 11.8978 2.26413 11.2035 4.26117 10.8182C4.36848 10.9238 4.47753 11.0317 4.59055 11.1449C6.7419 13.2997 9.51935 16.1149 12.7078 14.9953L12.7581 14.4715C9.80134 15.6073 7.25253 13.0493 5.29749 11.1102C5.15721 10.971 5.02209 10.8387 4.89195 10.7127C5.62576 10.6078 6.4657 10.5484 7.41207 10.5733C7.48038 10.5784 7.54743 10.584 7.6144 10.5898C8.79655 12.5817 10.3739 14.258 12.788 14.1611L12.8336 13.687C10.7097 13.7633 9.30069 12.3584 8.24297 10.6558C8.8751 10.735 9.44343 10.8459 9.9535 10.9794C10.5643 12.1287 11.4707 13.0427 12.8544 13.4702L12.9006 12.9897C11.8853 12.6357 11.1616 11.9913 10.6382 11.1826C11.672 11.528 12.4222 11.9648 12.9591 12.3817L13.013 11.8213C12.3517 11.3551 11.4636 10.8926 10.2826 10.551C10.0896 10.1552 9.93195 9.73308 9.8011 9.29622C11.3699 10.0255 12.3834 10.8482 13.0362 11.5798L13.0969 10.9487C12.3345 10.1799 11.2296 9.36479 9.63142 8.66356C9.40412 7.71361 9.27897 6.72263 9.17563 5.80139C9.59195 6.06434 10.0261 6.36557 10.4749 6.71431C11.7777 7.8247 12.6392 8.87134 13.208 9.79358L13.2813 9.03152C12.6347 8.09147 11.7185 7.06588 10.4205 6.00792C9.96706 5.67383 9.52601 5.38158 9.10034 5.12438C8.74861 2.04103 8.35709 1.08559 8.35709 1.08559C8.35709 1.08559 10.7 2.07864 12.9633 5.61192C13.1673 5.9634 13.3492 6.30291 13.5121 6.63085L13.5989 5.728C13.4564 5.46671 13.3037 5.20018 13.1375 4.92725C10.4723 0.984234 7.68779 0 7.68779 0C7.68779 0 8.15991 1.11588 8.5534 4.80892C5.72467 3.24877 3.71336 3.28297 3.71336 3.28297C3.71336 3.28297 4.52461 4.17883 6.09439 7.57506C6.10945 7.60751 6.12459 7.6403 6.13965 7.673C2.8686 7.19911 0.9306 7.99753 0.9306 7.99753C0.9306 7.99753 1.76649 8.42607 3.77574 10.3471C1.279 10.8676 0 11.8425 0 11.8425C0 11.8425 1.15425 12.0866 4.29731 13.9199C6.76139 15.3571 9.91253 17.2202 12.6335 15.768L12.6896 15.1846C10.1679 16.7172 7.23707 15.0046 4.97311 13.6992Z" fill="#EF951E"/>
  </g>
  <mask id="mask2_659_2101" style="mask-type:luminance" maskUnits="userSpaceOnUse" x="16" y="0" width="14" height="17">
    <path fill-rule="evenodd" clip-rule="evenodd" d="M16.4719 0H30V16.2939H16.4719V0Z" fill="white"/>
  </mask>
  <g mask="url(#mask2_659_2101)">
    <path fill-rule="evenodd" clip-rule="evenodd" d="M25.612 10.2334C24.8454 10.108 23.9816 10.0279 23.0189 10.0279C22.9092 10.0335 22.8012 10.0402 22.6944 10.0475C23.0173 9.45774 23.3104 8.85262 23.5843 8.26739C26.2914 7.82944 27.8919 8.37656 27.8919 8.37656C27.8919 8.37656 27.2176 8.73238 25.612 10.2334ZM22.0852 10.1006C21.4434 10.1681 20.8585 10.2681 20.3261 10.3925C20.509 9.96217 20.6586 9.50775 20.7834 9.04035C21.0399 8.93433 21.3086 8.83074 21.592 8.73063C22.0709 8.58609 22.527 8.47201 22.9591 8.38255C22.6923 8.94623 22.4051 9.5323 22.0852 10.1006ZM21.3764 5.46896C23.6926 4.14297 25.3097 4.07033 25.3097 4.07033C25.3097 4.07033 24.61 4.8616 23.2441 7.77585C22.8088 7.85674 22.3539 7.95867 21.8782 8.08873C21.5462 8.19774 21.2317 8.31182 20.9318 8.42982C21.1484 7.44525 21.273 6.4259 21.3764 5.46896ZM26.2243 10.3471C28.2335 8.42607 29.0694 7.99753 29.0694 7.99753C29.0694 7.99753 27.1314 7.19911 23.8604 7.673C23.8754 7.6403 23.8906 7.60759 23.9056 7.57514C25.4754 4.17883 26.2867 3.28297 26.2867 3.28297C26.2867 3.28297 24.2753 3.24877 21.4466 4.80892C21.8402 1.11588 22.3122 0 22.3122 0C22.3122 0 19.5277 0.984234 16.8626 4.92725C16.7237 5.15525 16.5941 5.37884 16.4719 5.59868L16.5578 6.49164C16.7025 6.20705 16.8615 5.91389 17.0367 5.612C19.3001 2.07872 21.643 1.08559 21.643 1.08559C21.643 1.08559 21.2514 2.04103 20.8998 5.12438C20.474 5.38158 20.033 5.67383 19.5796 6.00792C18.3303 7.02619 17.4339 8.01467 16.792 8.92551L16.8643 9.678C17.433 8.78421 18.2765 7.77843 19.5251 6.71431C19.9739 6.36565 20.4082 6.06434 20.8244 5.80139C20.721 6.72272 20.596 7.71369 20.3686 8.66364C18.8226 9.34199 17.7386 10.1268 16.9792 10.8733L17.0392 11.4968C17.6939 10.7863 18.6892 9.99803 20.1989 9.2963C20.0681 9.73308 19.9104 10.1552 19.7174 10.551C18.5825 10.8794 17.7179 11.3193 17.0652 11.767L17.1186 12.3224C17.6496 11.9236 18.377 11.5117 19.3618 11.1826C18.8523 11.9699 18.1535 12.6019 17.1801 12.9616L17.2263 13.4427C18.5641 13.0048 19.4479 12.1058 20.0466 10.9794C20.5566 10.8459 21.125 10.735 21.7571 10.6558C20.7133 12.336 19.3273 13.726 17.2501 13.6891L17.2956 14.1624C19.6623 14.2175 21.2173 12.5585 22.3856 10.5898C22.4526 10.584 22.5196 10.5784 22.588 10.5734C23.5343 10.5484 24.3743 10.6079 25.1081 10.7127C24.9779 10.8387 24.8429 10.971 24.7026 11.1102C22.7666 13.0305 20.2485 15.5576 17.3284 14.5041L17.3786 15.0249C20.5309 16.0643 23.2776 13.2803 25.4095 11.1449C25.5226 11.0317 25.6316 10.9238 25.7389 10.8183C27.7359 11.2035 28.7695 11.8978 28.7695 11.8978C28.7695 11.8978 27.7581 12.1244 25.0269 13.6992C22.7894 14.9894 19.9005 16.6771 17.399 15.2367L17.4544 15.8133C20.1552 17.1799 23.2651 15.3417 25.7027 13.9199C28.8458 12.0866 30 11.8426 30 11.8426C30 11.8426 28.721 10.8676 26.2243 10.3471Z" fill="#EF951E"/>
  </g>
  <defs>
    <radialGradient id="paint0_radial_659_2101" cx="0" cy="0" r="1" gradientUnits="userSpaceOnUse" gradientTransform="translate(15.0482 11.9526) rotate(90) scale(2.01261 1.91684)">
      <stop stop-color="#E94D13"/>
      <stop offset="0.219622" stop-color="#EB6E07"/>
      <stop offset="0.407645" stop-color="#F4970B"/>
      <stop offset="0.591614" stop-color="#FCBF06"/>
      <stop offset="0.804311" stop-color="#F7F19D"/>
      <stop offset="1" stop-color="white"/>
    </radialGradient>
  </defs>
</svg>