
<svg width="12" height="12" viewBox="0 0 12 12" fill="none" xmlns="http://www.w3.org/2000/svg">
<path fill-rule="evenodd" clip-rule="evenodd" d="M9.99984 0.666748H1.99984C1.2665 0.666748 0.666504 1.26675 0.666504 2.00008V10.0001C0.666504 10.7334 1.2665 11.3334 1.99984 11.3334H9.99984C10.7332 11.3334 11.3332 10.7334 11.3332 10.0001V2.00008C11.3332 1.26675 10.7332 0.666748 9.99984 0.666748ZM4.33317 5.66675C4.33317 6.22008 3.8865 6.66675 3.33317 6.66675H2.6665V7.50008C2.6665 7.77341 2.43984 8.00008 2.1665 8.00008C1.89317 8.00008 1.6665 7.77341 1.6665 7.50008V4.66675C1.6665 4.30008 1.9665 4.00008 2.33317 4.00008H3.33317C3.8865 4.00008 4.33317 4.44675 4.33317 5.00008V5.66675ZM7.6665 7.00008C7.6665 7.55341 7.21984 8.00008 6.6665 8.00008H5.33317C5.1465 8.00008 4.99984 7.85341 4.99984 7.66675V4.33341C4.99984 4.14675 5.1465 4.00008 5.33317 4.00008H6.6665C7.21984 4.00008 7.6665 4.44675 7.6665 5.00008V7.00008ZM10.3332 4.50008C10.3332 4.77341 10.1065 5.00008 9.83317 5.00008H9.33317V5.66675H9.83317C10.1065 5.66675 10.3332 5.89341 10.3332 6.16675C10.3332 6.44008 10.1065 6.66675 9.83317 6.66675H9.33317V7.50008C9.33317 7.77341 9.1065 8.00008 8.83317 8.00008C8.55984 8.00008 8.33317 7.77341 8.33317 7.50008V4.66675C8.33317 4.30008 8.63317 4.00008 8.99984 4.00008H9.83317C10.1065 4.00008 10.3332 4.22675 10.3332 4.50008ZM2.6665 5.66675H3.33317V5.00008H2.6665V5.66675ZM5.99984 7.00008H6.6665V5.00008H5.99984V7.00008Z" fill="#666666"/>
</svg>
