<svg width="22" height="16" viewBox="0 0 22 16" fill="none" xmlns="http://www.w3.org/2000/svg">
<path fill-rule="evenodd" clip-rule="evenodd" d="M19.5333 1.42567V14.5742C19.5333 15.1769 20.0133 15.67 20.5999 15.67C21.1866 15.67 21.6666 15.1769 21.6666 14.5742V1.42567C21.6666 0.823027 21.1866 0.329956 20.5999 0.329956C20.0133 0.329956 19.5333 0.823027 19.5333 1.42567ZM16.3333 15.67C16.9199 15.67 17.3999 15.1769 17.3999 14.5742V1.42567C17.3999 0.823027 16.9199 0.329956 16.3333 0.329956C15.7466 0.329956 15.2666 0.823027 15.2666 1.42567V14.5742C15.2666 15.1769 15.7466 15.67 16.3333 15.67ZM12.219 0.329956H1.24754C0.744681 0.329956 0.333252 0.823027 0.333252 1.42567V14.5742C0.333252 15.1769 0.744681 15.67 1.24754 15.67H12.219C12.7218 15.67 13.1333 15.1769 13.1333 14.5742V1.42567C13.1333 0.823027 12.7218 0.329956 12.219 0.329956Z" fill="#1B4CA1"/>
</svg>
