<svg width="80" height="75" viewBox="0 0 80 75" fill="none" xmlns="http://www.w3.org/2000/svg">
<path fill-rule="evenodd" clip-rule="evenodd" d="M66.3594 27.8898C64.463 27.578 62.3257 27.3794 59.9437 27.3794C59.6723 27.3932 59.4052 27.4097 59.1408 27.428C59.9396 25.9622 60.6648 24.6481 61.3428 23.1935C68.0405 22.1051 72.0004 22.8957 72.0004 22.8957C72.0004 22.8957 70.3323 24.1595 66.3594 27.8898ZM57.6335 27.5597C56.0454 27.7275 54.5983 27.9763 53.2813 28.2854C53.7335 27.216 54.1038 26.0864 54.4126 24.9249C55.0472 24.6615 54.7391 23.5116 55.4401 23.2626C56.6251 22.9035 60.9564 21.749 62.0256 21.5267C61.3656 22.9274 60.2345 28.3213 57.6335 27.5597ZM55.8797 16.2389C61.6105 12.9435 65.4316 12.3833 65.4316 12.3833C65.4316 12.3833 63.7003 14.5396 60.3209 21.7824C59.2439 21.9832 58.2983 22.2366 57.1212 22.5601C56.2999 22.8309 55.5217 23.1144 54.7799 23.4075C55.3157 20.9608 55.624 18.6171 55.8797 16.2389ZM67.8743 28.1724C72.8458 23.3983 74.9138 22.3331 74.9138 22.3331C74.9138 22.3331 70.1188 20.349 62.0256 21.5267C62.063 21.4456 62.1004 21.364 62.1376 21.2833C66.0217 12.8429 68.0288 10.6163 68.0288 10.6163C68.0288 10.6163 63.0523 10.5316 56.0534 14.4087C57.0273 5.23081 58.1952 2.45761 58.1952 2.45761C58.1952 2.45761 52.0254 4.7137 45.4313 14.5133C45.0877 15.0799 44.7671 15.6355 44.4648 16.1818L44.6772 18.4009C45.0352 17.6937 44.7091 17.9139 45.1426 17.1634C50.7426 8.38247 55.9998 5.34515 55.9998 5.34515C55.9998 5.34515 55.3907 7.52992 54.5206 15.1926C53.4672 15.8319 52.5559 16.5583 51.4339 17.3886C48.343 19.9193 46.845 22.186 45.2565 24.4499L45.4355 24.6122C46.8429 22.3911 48.2103 20.4607 51.2993 17.8161C52.4099 16.9495 55.0236 15.062 56.0534 14.4087C55.7977 16.6983 55.3423 21.0466 54.7799 23.4075C50.9546 25.0934 47.5986 27.4351 45.72 29.2907C47.3397 27.5251 51.0444 25.9687 54.7799 24.2246C54.4559 25.3103 53.7591 27.3018 53.2812 28.2854C50.4731 29.1016 47.5475 30.3989 45.9326 31.5113L46.0649 32.5123C47.3786 31.5213 49.7455 29.9901 52.1823 29.1723C51.9257 30.9358 50.6185 33.7077 46.2169 34.4802L46.3314 35.676C49.6411 34.5879 51.1084 32.1637 52.5895 29.3644C53.8515 29.0328 57.5768 27.6248 59.1408 27.428C56.7371 32.2471 48.8371 39.4573 46.3902 36.2885L46.5028 37.4647C52.3583 37.6016 55.4862 33.6682 58.3768 28.7756C58.5424 28.7613 58.7086 28.7473 58.8774 28.7348C59.9437 27.3794 66.0587 27.9119 67.8743 28.1724C67.5525 28.4856 65.3653 31.2316 65.0182 31.5773C60.2281 36.3496 50.6185 43.5576 46.584 38.693L46.708 39.608C54.5075 42.1913 60.5838 35.4623 65.8585 30.1552C66.1381 29.874 66.408 29.7953 66.6733 29.5332C71.6145 30.4907 74.1717 31.8365 74.1717 31.8365C74.1717 31.8365 71.6694 32.5897 64.9119 36.5034C59.3758 39.7096 52.9477 43.7141 46.7583 40.1347L46.8955 41.5677C53.5778 44.9641 60.553 40.5852 66.5839 37.0517C74.3607 32.4956 77.2164 31.8891 77.2164 31.8891C77.2164 31.8891 74.0519 29.4661 67.8743 28.1724Z" fill="#264092"/>
<path fill-rule="evenodd" clip-rule="evenodd" d="M7.96198 22.8958C7.96198 22.8958 11.9219 22.1052 18.6196 23.1936C19.2976 24.6479 20.0227 25.9621 20.8216 27.428C20.5572 27.4098 20.2901 27.393 20.0185 27.3792C17.6367 27.3792 15.4994 27.578 13.603 27.8899C9.63012 24.1596 7.96198 22.8958 7.96198 22.8958ZM17.9368 21.5268C19.006 21.749 23.3373 22.9034 24.5223 23.2627C25.2233 23.5116 24.9151 24.6613 25.5498 24.925C25.8586 26.0865 26.2289 27.2158 26.6811 28.2853C25.364 27.9763 23.917 27.7276 22.3289 27.5598C19.7279 28.3214 18.5968 22.9274 17.9368 21.5268ZM25.1825 23.4076C24.4407 23.1145 23.6625 22.8307 22.8412 22.5599C21.664 22.2367 20.7185 21.9833 19.6415 21.7822C16.2621 14.5397 14.5308 12.3834 14.5308 12.3834C14.5308 12.3834 18.3519 12.9433 24.0827 16.239C24.3384 18.617 24.6467 20.9607 25.1825 23.4076ZM2.74602 31.889C2.74602 31.889 5.6017 32.4954 13.3783 37.0518C19.4094 40.5852 26.3846 44.9639 33.0667 41.5677L33.2041 40.1345C27.0146 43.7142 20.5866 39.7095 15.0505 36.5032C8.29295 32.5897 5.79064 31.8366 5.79064 31.8366C5.79064 31.8366 8.3479 30.4905 13.2891 29.533C13.5544 29.7953 13.8242 29.8738 14.1038 30.1553C19.3786 35.4621 25.4549 42.1914 33.2543 39.6081L33.5583 38.5034C29.5237 43.368 19.7343 36.3497 14.9442 31.5774C14.5971 31.2314 12.4099 28.4856 12.0881 28.1725C13.9037 27.9117 20.0185 27.3792 21.085 28.7346C21.2538 28.7471 21.4197 28.7614 21.5856 28.7756C24.4762 33.6683 27.6041 37.6016 33.4596 37.4648L33.5722 36.2884C31.1253 39.4574 23.534 32.3633 20.8216 27.428C22.3856 27.6246 26.0756 29.1893 27.3376 29.5212C28.8187 32.3202 30.3213 34.5879 33.631 35.6761L33.7455 34.4803C29.3439 33.7075 28.0367 30.9359 27.7801 29.1724C30.2169 29.9899 32.5838 31.5214 33.8975 32.5124L34.0298 31.5114C32.4149 30.3987 29.4893 29.1015 26.6811 28.2853C26.2033 27.3019 25.5065 25.3101 25.1825 24.2247C28.918 25.9688 32.6226 27.525 34.2424 29.2905C32.3637 27.4352 29.0078 25.0935 25.1825 23.4075C24.6201 21.0467 24.1647 16.6983 23.9089 14.4088C24.9388 15.0621 27.5525 16.9495 28.6631 17.8159C31.7521 20.4607 33.1195 22.3909 34.5269 24.6123L34.7059 24.4498C33.1174 22.1861 31.6194 19.9191 28.5285 17.3886C27.4065 16.5581 26.4952 15.832 25.4418 15.1927C24.5715 7.52999 23.9626 5.34522 23.9626 5.34522C23.9626 5.34522 29.2198 8.38232 34.8198 17.1635C35.2532 17.9138 34.9271 17.6938 35.2852 18.401L35.4976 16.1819C35.1953 15.6354 34.8747 15.0797 34.5311 14.5131C27.9369 4.71377 21.7672 2.45746 21.7672 2.45746C21.7672 2.45746 22.9351 5.23065 23.9089 14.4088C16.9101 10.5314 11.9336 10.6163 11.9336 10.6163C11.9336 10.6163 13.9407 12.8428 17.8248 21.2834C17.862 21.3641 17.8994 21.4454 17.9368 21.5268C9.84358 20.3491 5.04861 22.3332 5.04861 22.3332C5.04861 22.3332 7.11661 23.3982 12.0881 28.1725C5.91047 29.4661 2.74602 31.889 2.74602 31.889Z" fill="#264092"/>
<path fill-rule="evenodd" clip-rule="evenodd" d="M35.0169 32.015C35.0169 34.9924 37.3054 37.4061 40.1285 37.4061C42.9514 37.4061 45.2401 34.9924 45.2401 32.015C45.2401 29.0379 42.9514 26.6242 40.1285 26.6242C37.3054 26.6242 35.0169 29.0379 35.0169 32.015Z" fill="url(#paint0_radial_741_18530)"/>
<path fill-rule="evenodd" clip-rule="evenodd" d="M46.2883 49.4351L40.0574 32.247L33.8266 49.4351L38.2714 53.5976L38.3498 46.2487L39.8013 44.9662L41.7234 45.8234L41.7628 48.731L41.488 54.1094L43.8081 51.5706L46.2883 49.4351Z" fill="#264092"/>
<path fill-rule="evenodd" clip-rule="evenodd" d="M40.0873 56.3492C40.0873 56.3492 39.4207 59.3772 42.2223 59.2477C44.4023 59.147 50.422 58.0287 52.8231 57.587C55.224 57.1454 60.0257 58.9731 57.0815 64.8853C55.4957 67.6565 49.8784 67.9908 44.0346 63.6908C38.1905 59.391 35.0784 57.0612 32.845 55.9989C29.8785 54.5882 22.6128 53.1929 21.157 60.9198C20.4076 66.3862 26.0044 67.4652 26.0044 67.4652C26.0044 67.4652 22.1235 66.1609 22.063 62.1143C22.0216 59.3353 24.6226 54.9123 29.8785 56.8111C35.1765 58.725 35.1554 59.4387 42.7206 65.3631C47.4321 68.7074 55.0881 71.4306 58.7122 65.8408C60.8867 62.0187 59.6182 56.7634 54.771 56.1422C51.0563 55.6643 51.328 57.241 43.0379 58.5311C40.2291 58.951 40.1029 57.8413 40.0873 56.3492Z" fill="#1B2133"/>
<mask id="mask0_741_18530" style="mask-type:luminance" maskUnits="userSpaceOnUse" x="25" y="65" width="13" height="10">
<path fill-rule="evenodd" clip-rule="evenodd" d="M25.8879 65.4322H37.3554V75H25.8879V65.4322Z" fill="white"/>
</mask>
<g mask="url(#mask0_741_18530)">
<path fill-rule="evenodd" clip-rule="evenodd" d="M35.5047 68.1361L30.6202 65.746C29.0199 64.9628 27.1205 65.6961 26.3781 67.3838L26.3083 67.5427L28.2941 68.4775C28.2941 68.4775 29.8073 67.8804 30.46 69.4718C31.7295 70.0594 32.334 70.3895 32.334 70.3895L32.2424 70.5986L30.3739 69.7032C30.3739 69.7032 28.8907 70.2611 28.203 68.7421C26.7999 68.0532 26.3626 67.8127 26.2259 67.7302L26.1853 67.8225C25.4429 69.5102 26.1382 71.5131 27.7385 72.2961L32.6231 74.6864C34.2232 75.4694 36.1225 74.7361 36.865 73.0483L37.0579 72.6097C37.8004 70.922 37.105 68.9191 35.5047 68.1361Z" fill="#1B2133"/>
</g>
<path fill-rule="evenodd" clip-rule="evenodd" d="M40.1098 44.6491L40.0881 44.6495C37.9007 44.6495 38.0991 47.3472 38.0991 47.3472V51.7929C37.2922 50.1257 33.1847 47.5059 33.1847 47.5059L36.2651 15.3413L34.7692 15.3814L31.6358 48.8985C31.6358 48.8985 38.358 52.707 39.628 57.7015V47.9639V47.9641C39.2649 47.7872 39.0261 47.4007 39.0261 46.9511C39.0261 46.3346 39.5001 45.8347 40.0847 45.8347C40.6693 45.8347 41.1433 46.3346 41.1433 46.9511C41.1433 47.4031 40.8912 47.7914 40.5249 47.967V57.7015C42.1265 52.1453 48.3643 48.9005 48.3643 48.9005C48.3643 48.9005 46.156 24.2837 45.2548 15.3413H43.9576L44.3179 19.1037L47.0381 47.5059C47.0381 47.5059 42.9304 50.1257 42.1237 51.7929V47.3472C42.1237 47.3472 42.3048 44.6495 40.1348 44.6495L40.1098 44.6491Z" fill="#EF951E"/>
<mask id="mask1_741_18530" style="mask-type:luminance" maskUnits="userSpaceOnUse" x="0" y="0" width="37" height="44">
<path fill-rule="evenodd" clip-rule="evenodd" d="M0 0H36.2636V43.6452H0V0Z" fill="white"/>
</mask>
<g mask="url(#mask1_741_18530)">
<path fill-rule="evenodd" clip-rule="evenodd" d="M5.62168 22.4372C5.62168 22.4372 9.88956 20.9715 17.1084 22.1445C17.8391 23.7124 18.6206 25.3332 19.4816 26.913C19.1967 26.8932 18.9089 26.8754 18.6162 26.8604C16.049 26.8604 13.7455 27.0746 11.7014 27.4108C7.41958 23.3903 5.62168 22.4372 5.62168 22.4372ZM12.5077 10.9024C12.5077 10.9024 16.8197 11.0972 22.9963 14.649C23.2719 17.2122 23.6045 19.9426 24.1819 22.5798C23.3824 22.2638 22.5436 21.9582 21.6585 21.6662C20.3895 21.3178 19.1766 21.0448 18.0157 20.8282C14.3736 13.0219 12.5077 10.9024 12.5077 10.9024ZM24.5775 24.2152C24.9106 25.4669 25.3094 26.6844 25.797 27.8372C24.3774 27.5039 22.8179 27.2358 21.1064 27.055C20.253 25.5329 19.4873 23.9629 18.7757 22.4532C19.928 22.6929 21.1443 22.9982 22.4214 23.3854C23.177 23.6537 23.8936 23.9312 24.5775 24.2152ZM13.2616 36.6944C5.97847 32.4762 3.28151 31.869 3.28151 31.869C3.28151 31.869 6.03764 30.0095 11.3631 28.9772C11.6492 29.2601 11.9401 29.5492 12.2414 29.8523C17.9784 35.6243 25.3849 43.1649 33.8875 40.1659L34.0217 38.763C26.1369 41.8052 19.34 34.9536 14.1266 29.7596C13.7525 29.3867 13.3922 29.0323 13.0452 28.6948C15.002 28.4138 17.2418 28.2546 19.7655 28.3213C19.9477 28.3349 20.1265 28.35 20.305 28.3654C23.4575 33.701 27.6636 38.1911 34.1014 37.9316L34.2229 36.6616C28.5593 36.866 24.8018 33.1029 21.9812 28.5424C23.6669 28.7544 25.1824 29.0515 26.5426 29.4092C28.1715 32.4875 30.5884 34.9358 34.2785 36.081L34.4017 34.7938C31.6942 33.8456 29.7642 32.1195 28.3684 29.9533C31.1254 30.8785 33.1258 32.0484 34.5577 33.1653L34.7014 31.6642C32.9379 30.4153 30.5696 29.1767 27.4204 28.2615C26.9055 27.2015 26.4852 26.0708 26.1362 24.9006C30.3198 26.854 33.0225 29.0577 34.7633 31.0174L34.925 29.327C32.8921 27.2675 29.9455 25.0843 25.6837 23.206C25.0776 20.6614 24.7439 18.0071 24.4683 15.5394C25.5785 16.2438 26.7362 17.0506 27.9331 17.9848C31.4072 20.959 33.7045 23.7625 35.2213 26.2328L35.4168 24.1916C33.6924 21.6736 31.2493 18.9265 27.7881 16.0927C26.5788 15.1977 25.4027 14.415 24.2675 13.726C23.3296 5.46704 22.2855 2.90782 22.2855 2.90782C22.2855 2.90782 28.5333 5.56779 34.5689 15.0319C35.1126 15.9734 35.5979 16.8828 36.0322 17.7612L36.2636 15.3428C35.8838 14.643 35.4766 13.9291 35.0332 13.198C27.9261 2.63634 20.5007 0 20.5007 0C20.5007 0 21.7597 2.98895 22.809 12.881C15.2658 8.70207 9.90228 8.79368 9.90228 8.79368C9.90228 8.79368 12.0656 11.1933 16.2517 20.2903C16.2918 20.3773 16.3322 20.4651 16.3724 20.5527C7.64956 19.2833 2.48157 21.4219 2.48157 21.4219C2.48157 21.4219 4.71061 22.5698 10.0686 27.7155C3.41064 29.1096 -3.05176e-05 31.721 -3.05176e-05 31.721C-3.05176e-05 31.721 3.07798 32.3748 11.4595 37.2855C18.0304 41.135 26.4334 46.1255 33.6892 42.2356L33.8389 40.673C27.1143 44.7781 19.2988 40.1908 13.2616 36.6944Z" fill="#EF951E"/>
</g>
<mask id="mask2_741_18530" style="mask-type:luminance" maskUnits="userSpaceOnUse" x="43" y="0" width="37" height="44">
<path fill-rule="evenodd" clip-rule="evenodd" d="M43.9251 0H80V43.6445H43.9251V0Z" fill="white"/>
</mask>
<g mask="url(#mask2_741_18530)">
<path fill-rule="evenodd" clip-rule="evenodd" d="M68.2985 27.4107C66.2544 27.0748 63.951 26.8604 61.3838 26.8604C61.0911 26.8753 60.8032 26.8934 60.5183 26.913C61.3793 25.3332 62.1609 23.7123 62.8915 22.1447C70.1104 20.9716 74.3783 22.4371 74.3783 22.4371C74.3783 22.4371 72.5803 23.3902 68.2985 27.4107ZM58.8937 27.055C57.1823 27.236 55.6225 27.5039 54.2029 27.8371C54.6905 26.6843 55.0895 25.4671 55.4224 24.2151C56.1063 23.9312 56.823 23.6537 57.5785 23.3855C58.8557 22.9984 60.072 22.6928 61.2242 22.4532C60.5128 23.963 59.7469 25.5329 58.8937 27.055ZM57.0037 14.6489C63.1802 11.0972 67.4925 10.9026 67.4925 10.9026C67.4925 10.9026 65.6265 13.0221 61.9842 20.8281C60.8233 21.0448 59.6104 21.3178 58.3417 21.6662C57.4564 21.9582 56.6178 22.2637 55.818 22.5798C56.3956 19.9426 56.7281 17.2122 57.0037 14.6489ZM69.9314 27.7154C75.2894 22.5698 77.5184 21.4219 77.5184 21.4219C77.5184 21.4219 72.3504 19.2833 63.6276 20.5526C63.6678 20.465 63.7083 20.3775 63.7483 20.2905C67.9344 11.1933 70.0979 8.79364 70.0979 8.79364C70.0979 8.79364 64.7342 8.70204 57.1909 12.881C58.2405 2.98892 59.4992 -3.05176e-05 59.4992 -3.05176e-05C59.4992 -3.05176e-05 52.0739 2.63631 44.9668 13.1979C44.5965 13.8087 44.251 14.4076 43.9251 14.9964L44.1542 17.3883C44.5399 16.626 44.964 15.8408 45.4311 15.0321C51.4669 5.56798 57.7146 2.90779 57.7146 2.90779C57.7146 2.90779 56.6704 5.46701 55.7326 13.726C54.5973 14.4149 53.4212 15.1977 52.2121 16.0926C48.8807 18.8201 46.4904 21.4678 44.7785 23.9076L44.9714 25.9232C46.488 23.5291 48.7374 20.835 52.0669 17.9847C53.2637 17.0508 54.4217 16.2437 55.5317 15.5394C55.2561 18.0072 54.9226 20.6616 54.3162 23.2062C50.1935 25.0231 47.3028 27.1252 45.2779 29.125L45.4379 30.7949C47.1836 28.8919 49.8378 26.7804 53.8637 24.9008C53.5148 26.0707 53.0944 27.2015 52.5796 28.2615C49.5532 29.1413 47.2476 30.3195 45.5072 31.5186L45.6496 33.0064C47.0654 31.9383 49.0052 30.8348 51.6315 29.9535C50.2728 32.0622 48.4092 33.7551 45.8136 34.7184L45.9369 36.0072C49.5041 34.8343 51.861 32.4262 53.4575 29.4092C54.8175 29.0514 56.3333 28.7543 58.019 28.5424C55.2354 33.0427 51.5394 36.7661 46.0003 36.6671L46.1216 37.9349C52.4327 38.0825 56.5795 33.6387 59.6949 28.3654C59.8735 28.35 60.0523 28.3348 60.2345 28.3215C62.7581 28.2546 64.998 28.414 66.9548 28.6948C66.6078 29.0323 66.2476 29.3867 65.8736 29.7596C60.7109 34.903 53.9958 41.6721 46.2091 38.8501L46.3429 40.2452C54.7491 43.0293 62.0736 35.5723 67.7585 29.8525C68.0601 29.5492 68.3509 29.2601 68.6369 28.9774C73.9623 30.0094 76.7187 31.869 76.7187 31.869C76.7187 31.869 74.0215 32.4761 66.7384 36.6943C60.7717 40.15 53.068 44.6707 46.3972 40.8127L46.5449 42.3571C53.7471 46.0176 62.0402 41.0937 68.5405 37.2854C76.9222 32.3747 80 31.7212 80 31.7212C80 31.7212 76.5893 29.1096 69.9314 27.7154Z" fill="#EF951E"/>
</g>
<defs>
<radialGradient id="paint0_radial_741_18530" cx="0" cy="0" r="1" gradientUnits="userSpaceOnUse" gradientTransform="translate(40.1285 32.0151) rotate(90) scale(5.39093 5.11156)">
<stop stop-color="#E94D13"/>
<stop offset="0.219622" stop-color="#EB6E07"/>
<stop offset="0.407645" stop-color="#F4970B"/>
<stop offset="0.591614" stop-color="#FCBF06"/>
<stop offset="0.804311" stop-color="#F7F19D"/>
<stop offset="1" stop-color="white"/>
</radialGradient>
</defs>
</svg>
